<mxfile host="app.diagrams.net" agent="Mozilla/5.0 (X11; Linux x86_64) AppleWebKit/537.36 (KHTML, like Gecko) Chrome/130.0.0.0 Safari/537.36 Edg/130.0.0.0" version="24.9.2">
  <diagram name="Página-1" id="weI1yA36kK81sH1m-amS">
    <mxGraphModel dx="704" dy="355" grid="1" gridSize="10" guides="1" tooltips="1" connect="1" arrows="1" fold="1" page="1" pageScale="1" pageWidth="827" pageHeight="1169" math="0" shadow="0">
      <root>
        <mxCell id="0" />
        <mxCell id="1" parent="0" />
        <mxCell id="Mze4XMxLoN1LTgoZpSTi-6" style="rounded=0;orthogonalLoop=1;jettySize=auto;html=1;exitX=1;exitY=0.3333333333333333;exitDx=0;exitDy=0;exitPerimeter=0;entryX=0;entryY=0.5;entryDx=0;entryDy=0;endArrow=none;endFill=0;fillColor=#e51400;strokeColor=#B20000;" edge="1" parent="1" source="Mze4XMxLoN1LTgoZpSTi-1" target="Mze4XMxLoN1LTgoZpSTi-2">
          <mxGeometry relative="1" as="geometry" />
        </mxCell>
        <mxCell id="Mze4XMxLoN1LTgoZpSTi-8" style="edgeStyle=none;shape=connector;rounded=0;orthogonalLoop=1;jettySize=auto;html=1;exitX=1;exitY=0.3333333333333333;exitDx=0;exitDy=0;exitPerimeter=0;entryX=0;entryY=0.5;entryDx=0;entryDy=0;strokeColor=#B20000;align=center;verticalAlign=middle;fontFamily=Helvetica;fontSize=11;fontColor=default;labelBackgroundColor=default;endArrow=none;endFill=0;fillColor=#e51400;" edge="1" parent="1" source="Mze4XMxLoN1LTgoZpSTi-1" target="Mze4XMxLoN1LTgoZpSTi-4">
          <mxGeometry relative="1" as="geometry" />
        </mxCell>
        <mxCell id="Mze4XMxLoN1LTgoZpSTi-9" style="edgeStyle=none;shape=connector;rounded=0;orthogonalLoop=1;jettySize=auto;html=1;exitX=1;exitY=0.3333333333333333;exitDx=0;exitDy=0;exitPerimeter=0;entryX=0;entryY=0.5;entryDx=0;entryDy=0;strokeColor=#B20000;align=center;verticalAlign=middle;fontFamily=Helvetica;fontSize=11;fontColor=default;labelBackgroundColor=default;endArrow=none;endFill=0;fillColor=#e51400;" edge="1" parent="1" source="Mze4XMxLoN1LTgoZpSTi-1" target="Mze4XMxLoN1LTgoZpSTi-5">
          <mxGeometry relative="1" as="geometry" />
        </mxCell>
        <mxCell id="Mze4XMxLoN1LTgoZpSTi-1" value="&lt;div&gt;&lt;span style=&quot;background-color: initial;&quot;&gt;Cliente/Usuário&lt;/span&gt;&lt;/div&gt;" style="shape=umlActor;verticalLabelPosition=bottom;verticalAlign=top;html=1;outlineConnect=0;" vertex="1" parent="1">
          <mxGeometry x="20" y="130" width="50" height="100" as="geometry" />
        </mxCell>
        <mxCell id="Mze4XMxLoN1LTgoZpSTi-2" value="Procurar Livros" style="ellipse;whiteSpace=wrap;html=1;" vertex="1" parent="1">
          <mxGeometry x="110" y="110" width="90" height="40" as="geometry" />
        </mxCell>
        <mxCell id="Mze4XMxLoN1LTgoZpSTi-4" value="Deixar Resenha" style="ellipse;whiteSpace=wrap;html=1;" vertex="1" parent="1">
          <mxGeometry x="110" y="160" width="90" height="40" as="geometry" />
        </mxCell>
        <mxCell id="Mze4XMxLoN1LTgoZpSTi-5" value="Avaliar" style="ellipse;whiteSpace=wrap;html=1;" vertex="1" parent="1">
          <mxGeometry x="110" y="210" width="90" height="40" as="geometry" />
        </mxCell>
        <mxCell id="Mze4XMxLoN1LTgoZpSTi-16" style="edgeStyle=none;shape=connector;rounded=0;orthogonalLoop=1;jettySize=auto;html=1;exitX=0;exitY=0.3333333333333333;exitDx=0;exitDy=0;exitPerimeter=0;entryX=1;entryY=0.5;entryDx=0;entryDy=0;strokeColor=#B20000;align=center;verticalAlign=middle;fontFamily=Helvetica;fontSize=11;fontColor=default;labelBackgroundColor=default;endArrow=none;endFill=0;fillColor=#e51400;" edge="1" parent="1" source="Mze4XMxLoN1LTgoZpSTi-12" target="Mze4XMxLoN1LTgoZpSTi-2">
          <mxGeometry relative="1" as="geometry" />
        </mxCell>
        <mxCell id="Mze4XMxLoN1LTgoZpSTi-19" style="edgeStyle=none;shape=connector;rounded=0;orthogonalLoop=1;jettySize=auto;html=1;exitX=1;exitY=0.3333333333333333;exitDx=0;exitDy=0;exitPerimeter=0;entryX=0;entryY=0.5;entryDx=0;entryDy=0;strokeColor=#B20000;align=center;verticalAlign=middle;fontFamily=Helvetica;fontSize=11;fontColor=default;labelBackgroundColor=default;endArrow=none;endFill=0;fillColor=#e51400;" edge="1" parent="1" source="Mze4XMxLoN1LTgoZpSTi-12" target="Mze4XMxLoN1LTgoZpSTi-14">
          <mxGeometry relative="1" as="geometry" />
        </mxCell>
        <mxCell id="Mze4XMxLoN1LTgoZpSTi-20" style="edgeStyle=none;shape=connector;rounded=0;orthogonalLoop=1;jettySize=auto;html=1;exitX=1;exitY=0.3333333333333333;exitDx=0;exitDy=0;exitPerimeter=0;entryX=0;entryY=0.5;entryDx=0;entryDy=0;strokeColor=#B20000;align=center;verticalAlign=middle;fontFamily=Helvetica;fontSize=11;fontColor=default;labelBackgroundColor=default;endArrow=none;endFill=0;fillColor=#e51400;" edge="1" parent="1" source="Mze4XMxLoN1LTgoZpSTi-12" target="Mze4XMxLoN1LTgoZpSTi-15">
          <mxGeometry relative="1" as="geometry" />
        </mxCell>
        <mxCell id="Mze4XMxLoN1LTgoZpSTi-28" style="edgeStyle=none;shape=connector;rounded=0;orthogonalLoop=1;jettySize=auto;html=1;exitX=1;exitY=0.3333333333333333;exitDx=0;exitDy=0;exitPerimeter=0;entryX=0;entryY=0.5;entryDx=0;entryDy=0;strokeColor=#B20000;align=center;verticalAlign=middle;fontFamily=Helvetica;fontSize=11;fontColor=default;labelBackgroundColor=default;endArrow=none;endFill=0;fillColor=#e51400;" edge="1" parent="1" source="Mze4XMxLoN1LTgoZpSTi-12" target="Mze4XMxLoN1LTgoZpSTi-23">
          <mxGeometry relative="1" as="geometry" />
        </mxCell>
        <mxCell id="Mze4XMxLoN1LTgoZpSTi-31" style="edgeStyle=none;shape=connector;rounded=0;orthogonalLoop=1;jettySize=auto;html=1;exitX=1;exitY=0.3333333333333333;exitDx=0;exitDy=0;exitPerimeter=0;entryX=0;entryY=0.5;entryDx=0;entryDy=0;strokeColor=#B20000;align=center;verticalAlign=middle;fontFamily=Helvetica;fontSize=11;fontColor=default;labelBackgroundColor=default;endArrow=none;endFill=0;fillColor=#e51400;" edge="1" parent="1" source="Mze4XMxLoN1LTgoZpSTi-12" target="Mze4XMxLoN1LTgoZpSTi-30">
          <mxGeometry relative="1" as="geometry" />
        </mxCell>
        <mxCell id="Mze4XMxLoN1LTgoZpSTi-12" value="Bibliotecario" style="shape=umlActor;verticalLabelPosition=bottom;verticalAlign=top;html=1;outlineConnect=0;" vertex="1" parent="1">
          <mxGeometry x="270" y="130" width="50" height="100" as="geometry" />
        </mxCell>
        <mxCell id="Mze4XMxLoN1LTgoZpSTi-14" value="&lt;div style=&quot;&quot;&gt;&lt;span style=&quot;background-color: initial;&quot;&gt;Cadastrar Livros&lt;/span&gt;&lt;/div&gt;" style="ellipse;whiteSpace=wrap;html=1;align=center;" vertex="1" parent="1">
          <mxGeometry x="380" y="110" width="90" height="40" as="geometry" />
        </mxCell>
        <mxCell id="Mze4XMxLoN1LTgoZpSTi-15" value="Acessar Livros Emprestados" style="ellipse;whiteSpace=wrap;html=1;" vertex="1" parent="1">
          <mxGeometry x="380" y="160" width="90" height="40" as="geometry" />
        </mxCell>
        <mxCell id="Mze4XMxLoN1LTgoZpSTi-17" value="Excluir Livros do Sistema" style="ellipse;whiteSpace=wrap;html=1;" vertex="1" parent="1">
          <mxGeometry x="380" y="210" width="90" height="40" as="geometry" />
        </mxCell>
        <mxCell id="Mze4XMxLoN1LTgoZpSTi-18" value="&lt;font style=&quot;font-size: 10px;&quot;&gt;Acessar Informações dos clientes&lt;/font&gt;" style="ellipse;whiteSpace=wrap;html=1;" vertex="1" parent="1">
          <mxGeometry x="380" y="260" width="90" height="40" as="geometry" />
        </mxCell>
        <mxCell id="Mze4XMxLoN1LTgoZpSTi-21" style="edgeStyle=none;shape=connector;rounded=0;orthogonalLoop=1;jettySize=auto;html=1;exitX=1;exitY=0.3333333333333333;exitDx=0;exitDy=0;exitPerimeter=0;entryX=0;entryY=0.5;entryDx=0;entryDy=0;strokeColor=#B20000;align=center;verticalAlign=middle;fontFamily=Helvetica;fontSize=11;fontColor=default;labelBackgroundColor=default;endArrow=none;endFill=0;fillColor=#e51400;" edge="1" parent="1" source="Mze4XMxLoN1LTgoZpSTi-12" target="Mze4XMxLoN1LTgoZpSTi-17">
          <mxGeometry relative="1" as="geometry" />
        </mxCell>
        <mxCell id="Mze4XMxLoN1LTgoZpSTi-22" style="edgeStyle=none;shape=connector;rounded=0;orthogonalLoop=1;jettySize=auto;html=1;exitX=1;exitY=0.3333333333333333;exitDx=0;exitDy=0;exitPerimeter=0;entryX=0.006;entryY=0.589;entryDx=0;entryDy=0;entryPerimeter=0;strokeColor=#B20000;align=center;verticalAlign=middle;fontFamily=Helvetica;fontSize=11;fontColor=default;labelBackgroundColor=default;endArrow=none;endFill=0;fillColor=#e51400;" edge="1" parent="1" source="Mze4XMxLoN1LTgoZpSTi-12" target="Mze4XMxLoN1LTgoZpSTi-18">
          <mxGeometry relative="1" as="geometry" />
        </mxCell>
        <mxCell id="Mze4XMxLoN1LTgoZpSTi-23" value="Cobrar a multa Por Email" style="ellipse;whiteSpace=wrap;html=1;" vertex="1" parent="1">
          <mxGeometry x="380" y="60" width="90" height="40" as="geometry" />
        </mxCell>
        <mxCell id="Mze4XMxLoN1LTgoZpSTi-30" value="Enviar Atualizações ao Totem" style="ellipse;whiteSpace=wrap;html=1;" vertex="1" parent="1">
          <mxGeometry x="380" y="310" width="90" height="40" as="geometry" />
        </mxCell>
      </root>
    </mxGraphModel>
  </diagram>
</mxfile>
